<svg width="106" height="94" viewBox="0 0 106 94" fill="none" xmlns="http://www.w3.org/2000/svg">
<path d="M105.312 47.0107C105.312 40.0343 96.5754 33.4228 83.1806 29.3228C86.2717 15.6704 84.8979 4.80865 78.8445 1.33116C77.4492 0.515458 75.8178 0.129071 74.0361 0.129071V4.91598C75.0235 4.91598 75.8178 5.10917 76.4832 5.47409C79.4026 7.14844 80.6691 13.5238 79.6816 21.7238C79.4455 23.7416 79.0591 25.8668 78.5869 28.0348C74.3795 27.0045 69.7858 26.2102 64.956 25.695C62.0581 21.7238 59.0529 18.1175 56.0262 14.962C63.0241 8.45786 69.5926 4.89451 74.0576 4.89451V0.107605C68.1544 0.107605 60.4267 4.31493 52.6131 11.6134C44.7995 4.35787 37.0717 0.193469 31.1686 0.193469V4.98038C35.612 4.98038 42.2021 8.52226 49.2 14.9835C46.1947 18.139 43.1895 21.7238 40.3345 25.695C35.4832 26.2102 30.8895 27.0045 26.6822 28.0563C26.1885 25.9097 25.8235 23.8275 25.566 21.8312C24.5571 13.6312 25.8021 7.25577 28.7 5.55996C29.344 5.17357 30.1811 5.00184 31.1686 5.00184V0.214935C29.3654 0.214935 27.734 0.601322 26.3173 1.41703C20.2853 4.89451 18.933 15.7348 22.0455 29.3442C8.69371 33.4657 0 40.0558 0 47.0107C0 53.9872 8.73664 60.5987 22.1314 64.6987C19.0403 78.351 20.4141 89.2128 26.4675 92.6903C27.8628 93.506 29.4942 93.8924 31.2974 93.8924C37.2005 93.8924 44.9283 89.6851 52.7419 82.3866C60.5555 89.6421 68.2832 93.8065 74.1864 93.8065C75.9895 93.8065 77.6209 93.4201 79.0377 92.6044C85.0696 89.1269 86.422 78.2866 83.3094 64.6772C96.6183 60.5772 105.312 53.9657 105.312 47.0107ZM77.3633 32.6929C76.5691 35.462 75.5816 38.317 74.4654 41.172C73.5853 39.4547 72.6623 37.7374 71.6534 36.0202C70.6659 34.3029 69.6141 32.6285 68.5623 30.9971C71.6105 31.4479 74.5513 32.006 77.3633 32.6929ZM67.5319 55.5542C65.8576 58.4521 64.1403 61.1997 62.3586 63.7542C59.1602 64.0332 55.9188 64.1835 52.656 64.1835C49.4146 64.1835 46.1733 64.0332 42.9963 63.7756C41.2146 61.2212 39.4759 58.495 37.8016 55.6186C36.1701 52.8065 34.689 49.9516 33.3366 47.0751C34.6675 44.1987 36.1701 41.3222 37.7801 38.5102C39.4544 35.6123 41.1717 32.8647 42.9534 30.3102C46.1518 30.0312 49.3932 29.8809 52.656 29.8809C55.8974 29.8809 59.1387 30.0312 62.3157 30.2887C64.0974 32.8432 65.8361 35.5694 67.5104 38.4458C69.1419 41.2579 70.623 44.1128 71.9754 46.9893C70.623 49.8657 69.1419 52.7421 67.5319 55.5542ZM74.4654 52.7636C75.6246 55.64 76.612 58.5165 77.4277 61.3071C74.6157 61.994 71.6534 62.5736 68.5837 63.0243C69.6356 61.3715 70.6874 59.6756 71.6748 57.9369C72.6623 56.2196 73.5853 54.4809 74.4654 52.7636ZM52.6989 75.6678C50.7026 73.6071 48.7063 71.3102 46.7314 68.7987C48.6633 68.8845 50.6382 68.9489 52.6345 68.9489C54.6523 68.9489 56.6487 68.906 58.6021 68.7987C56.6701 71.3102 54.6738 73.6071 52.6989 75.6678ZM36.7283 63.0243C33.6801 62.5736 30.7393 62.0154 27.9272 61.3285C28.7215 58.5594 29.7089 55.7044 30.8251 52.8495C31.7052 54.5667 32.6283 56.284 33.6372 58.0013C34.6461 59.7186 35.6764 61.3929 36.7283 63.0243ZM52.5916 18.3537C54.5879 20.4144 56.5843 22.7113 58.5591 25.2228C56.6272 25.1369 54.6523 25.0725 52.656 25.0725C50.6382 25.0725 48.6419 25.1154 46.6885 25.2228C48.6204 22.7113 50.6167 20.4144 52.5916 18.3537ZM36.7068 30.9971C35.655 32.65 34.6031 34.3458 33.6157 36.0846C32.6283 37.8018 31.7052 39.5191 30.8251 41.2364C29.666 38.3599 28.6785 35.4835 27.8628 32.6929C30.6749 32.0275 33.6372 31.4479 36.7068 30.9971ZM17.2801 57.8725C9.68115 54.6311 4.76544 50.3809 4.76544 47.0107C4.76544 43.6406 9.68115 39.3688 17.2801 36.149C19.1262 35.3547 21.144 34.6463 23.2262 33.9809C24.4497 38.1882 26.0597 42.5673 28.056 47.0537C26.0811 51.5186 24.4927 55.8762 23.2906 60.062C21.1654 59.3966 19.1476 58.6667 17.2801 57.8725ZM28.8288 88.5474C25.9094 86.873 24.6429 80.4976 25.6304 72.2976C25.8665 70.2798 26.2529 68.1547 26.7251 65.9866C30.9325 67.017 35.5262 67.8112 40.356 68.3264C43.2539 72.2976 46.2591 75.9039 49.2858 79.0594C42.2879 85.5636 35.7194 89.1269 31.2544 89.1269C30.2885 89.1055 29.4728 88.9123 28.8288 88.5474ZM79.746 72.1903C80.7549 80.3903 79.5099 86.7657 76.612 88.4615C75.968 88.8479 75.1309 89.0196 74.1434 89.0196C69.7 89.0196 63.1099 85.4777 56.112 79.0165C59.1173 75.861 62.1225 72.2762 64.9775 68.305C69.8288 67.7898 74.4225 66.9955 78.6298 65.9437C79.1235 68.1118 79.5099 70.194 79.746 72.1903ZM88.0104 57.8725C86.1644 58.6667 84.1466 59.3751 82.0644 60.0406C80.8408 55.8332 79.2309 51.4542 77.2345 46.9678C79.2094 42.5029 80.7979 38.1453 82 33.9594C84.1251 34.6249 86.1429 35.3547 88.0319 36.149C95.6308 39.3903 100.547 43.6406 100.547 47.0107C100.525 50.3809 95.6094 54.6526 88.0104 57.8725Z" fill="#81D8F7"/>
<path d="M52.6345 56.8207C58.0524 56.8207 62.4445 52.4286 62.4445 47.0107C62.4445 41.5929 58.0524 37.2008 52.6345 37.2008C47.2167 37.2008 42.8246 41.5929 42.8246 47.0107C42.8246 52.4286 47.2167 56.8207 52.6345 56.8207Z" fill="#81D8F7"/>
</svg>
